<?xml version="1.0" standalone="no"?>
<!DOCTYPE svg PUBLIC "-//W3C//DTD SVG 20010904//EN"
 "http://www.w3.org/TR/2001/REC-SVG-20010904/DTD/svg10.dtd">
<svg version="1.0" xmlns="http://www.w3.org/2000/svg"
 width="1024.000000pt" height="1024.000000pt" viewBox="0 0 1024.000000 1024.000000"
 preserveAspectRatio="xMidYMid meet">

<g transform="translate(0.000000,1024.000000) scale(0.100000,-0.100000)"
fill="#000000" stroke="none">
<path d="M4860 8313 c-135 -47 -366 -127 -515 -178 -148 -52 -369 -128 -490
-170 -121 -42 -231 -81 -245 -85 -14 -5 -97 -34 -185 -65 -343 -122 -604 -211
-929 -321 -186 -62 -347 -121 -357 -130 -18 -16 -19 -53 -19 -961 0 -774 3
-970 15 -1091 65 -629 255 -1159 604 -1685 359 -541 845 -981 1511 -1370 190
-111 788 -399 857 -413 35 -7 141 37 463 193 594 288 1013 570 1374 923 282
276 515 572 686 870 267 468 402 882 477 1470 14 117 17 261 20 1083 l4 947
-28 28 c-22 22 -83 47 -268 109 -271 92 -682 233 -1110 383 -159 56 -353 124
-430 150 -220 75 -730 251 -955 329 -112 39 -211 71 -220 70 -8 0 -125 -39
-260 -86z m375 -459 c252 -91 1597 -554 2090 -720 154 -52 292 -99 308 -105
l27 -11 0 -587 c-1 -972 -17 -1174 -127 -1601 -44 -172 -105 -341 -180 -503
l-46 -98 -40 38 c-132 128 -307 346 -440 550 -362 551 -678 1342 -812 2033
-21 107 -42 212 -47 232 l-9 37 -76 3 c-75 3 -77 4 -78 28 -4 88 -7 102 -25
120 -15 15 -33 20 -74 20 -47 0 -57 -4 -75 -26 -20 -25 -21 -40 -21 -224 l0
-197 -61 -7 c-80 -8 -627 -8 -791 1 l-128 6 0 199 c0 198 0 199 -25 223 -19
20 -35 25 -71 25 -59 0 -94 -28 -94 -75 0 -18 -3 -47 -6 -64 l-6 -31 -74 0
c-60 0 -75 -3 -83 -17 -5 -10 -16 -67 -26 -128 -70 -461 -270 -1083 -511
-1585 -215 -451 -411 -746 -697 -1054 l-101 -108 -34 68 c-99 196 -178 434
-238 714 -70 328 -67 283 -71 1188 l-4 822 28 11 c29 12 283 99 1008 347 820
280 1293 444 1420 492 68 26 76 25 190 -16z m370 -1498 c8 -88 3 -231 -8 -243
-5 -4 -224 -9 -488 -11 l-479 -2 0 165 0 165 484 0 484 0 7 -74z m575 -721
c39 -99 87 -215 107 -258 l35 -79 1 -636 2 -637 -172 -3 -173 -2 0 1087 1
1088 63 -190 c35 -104 96 -271 136 -370z m-1925 -538 l6 -1077 -170 0 -171 0
0 645 0 646 29 57 c57 114 176 430 253 673 24 75 44 136 45 135 2 -1 5 -487 8
-1079z m1349 455 c4 -89 4 -167 1 -172 -4 -6 -185 -10 -491 -10 l-484 0 0 169
c0 153 2 170 18 174 9 3 227 5 483 4 l466 -2 7 -163z m2 -649 c6 -74 -1 -362
-11 -371 -2 -2 -16 5 -32 16 -53 37 -171 92 -243 111 -208 58 -428 24 -609
-93 l-71 -46 0 94 c0 51 -3 154 -7 229 l-6 137 486 0 485 0 8 -77z m-1881
-400 c-3 -252 -5 -464 -5 -470 0 -10 -27 -13 -100 -13 l-100 0 0 295 0 295
100 166 c55 91 100 170 100 175 0 5 2 9 5 9 3 0 3 -206 0 -457z m2815 406 c12
-22 57 -98 101 -169 l79 -128 0 -296 0 -296 -100 0 -100 0 0 293 c0 160 -3
370 -7 465 -3 94 -3 172 0 172 4 0 16 -18 27 -41z m-3210 -724 l0 -165 -155 0
-155 0 68 73 c38 39 106 114 151 165 46 50 85 92 87 92 2 0 4 -74 4 -165z
m3745 -15 c38 -41 85 -92 104 -112 l35 -38 -152 0 -152 0 0 168 1 167 47 -55
c26 -30 78 -89 117 -130z m-1793 126 c164 -58 297 -212 334 -385 10 -49 14
-155 14 -423 l0 -358 185 -2 c102 -1 197 -2 212 -2 20 -1 31 7 43 27 14 27 14
29 -13 52 -22 20 -32 23 -52 15 l-25 -10 0 240 0 240 495 0 c566 0 516 11 423
-97 -452 -528 -925 -865 -1674 -1196 l-102 -45 -83 38 c-143 64 -460 225 -600
305 -243 140 -535 343 -685 476 -159 142 -394 387 -454 474 l-31 45 491 0 490
0 0 -238 0 -239 -28 5 c-36 5 -67 -27 -58 -61 3 -14 11 -27 18 -29 7 -2 106
-2 221 0 l207 4 0 362 c0 390 6 450 53 543 62 121 171 217 297 260 93 32 230
32 322 -1z"/>
<path d="M5034 7389 c-3 -6 -3 -50 0 -98 9 -110 5 -121 -45 -121 -22 0 -39 -5
-39 -11 0 -6 37 -49 82 -95 l82 -85 83 83 c46 45 83 88 83 95 0 6 -17 13 -37
15 l-38 3 -3 113 -3 112 -79 0 c-46 0 -82 -4 -86 -11z"/>
<path d="M3274 6721 c-2 -2 -4 -40 -4 -83 l0 -78 80 0 80 0 0 86 0 85 -76 -3
c-41 -2 -77 -5 -80 -7z"/>
<path d="M3550 6646 l0 -86 80 0 80 0 0 80 0 80 -57 0 c-32 0 -68 3 -80 6 -23
6 -23 5 -23 -80z"/>
<path d="M6530 6646 l0 -86 80 0 81 0 -3 82 -3 83 -77 3 -78 4 0 -86z"/>
<path d="M6800 6644 l0 -84 80 0 80 0 0 85 0 85 -80 -1 -80 -1 0 -84z"/>
<path d="M3270 6295 l0 -85 80 0 80 0 0 85 0 85 -80 0 -80 0 0 -85z"/>
<path d="M3550 6295 l0 -85 80 0 80 0 0 85 0 85 -80 0 -80 0 0 -85z"/>
<path d="M6530 6295 l0 -86 78 3 77 3 -1 80 0 80 -77 3 -77 3 0 -86z"/>
<path d="M5005 4087 c-70 -33 -110 -70 -137 -125 -21 -43 -23 -63 -28 -257 -5
-193 -6 -210 -22 -207 -17 3 -18 -14 -18 -237 l0 -239 116 -98 c136 -115 196
-163 206 -164 3 0 50 39 104 88 53 48 123 109 156 136 l58 48 0 234 c0 224 -1
234 -19 234 -19 0 -20 10 -23 213 -3 213 -3 214 -30 255 -63 95 -130 134 -238
139 -64 3 -83 0 -125 -20z m179 -154 c49 -35 56 -66 56 -257 l0 -176 -120 0
-120 0 0 186 c0 121 4 193 12 207 33 63 115 82 172 40z m-13 -586 c41 -32 49
-81 19 -120 -17 -21 -20 -40 -20 -124 0 -90 -2 -100 -24 -120 -29 -28 -38 -28
-58 -5 -11 12 -17 47 -21 117 -4 75 -11 110 -27 142 -23 44 -20 63 18 106 18
20 88 23 113 4z"/>
</g>
</svg>
