<?xml version="1.0" encoding="UTF-8" standalone="no"?>
<svg
   version="1.0"
   viewBox="0 0 206.99999 207"
   color-interpolation-filters="sRGB"
   id="svg6"
   sodipodi:docname="logo-dark.svg"
   inkscape:version="1.3.2 (091e20ef0f, 2023-11-25)"
   width="216"
   height="216"
   inkscape:export-filename="../dev/stridtech/website2/public/images/marketplace/logo-90.png"
   inkscape:export-xdpi="141.33752"
   inkscape:export-ydpi="141.33752"
   xmlns:inkscape="http://www.inkscape.org/namespaces/inkscape"
   xmlns:sodipodi="http://sodipodi.sourceforge.net/DTD/sodipodi-0.dtd"
   xmlns:xlink="http://www.w3.org/1999/xlink"
   xmlns="http://www.w3.org/2000/svg"
   xmlns:svg="http://www.w3.org/2000/svg">
  <defs
     id="defs6">
    <linearGradient
       id="linearGradient6"
       inkscape:collect="always">
      <stop
         style="stop-color:#1e40af;stop-opacity:0.77254903;"
         offset="0"
         id="stop6" />
      <stop
         style="stop-color:#3b82f6;stop-opacity:1;"
         offset="1"
         id="stop7" />
    </linearGradient>
    <linearGradient
       inkscape:collect="always"
       xlink:href="#linearGradient6"
       id="linearGradient7"
       x1="8.282857e-05"
       y1="30.6"
       x2="93.599915"
       y2="30.6"
       gradientUnits="userSpaceOnUse" />
    <linearGradient
       inkscape:collect="always"
       xlink:href="#linearGradient6"
       id="linearGradient8"
       gradientUnits="userSpaceOnUse"
       x1="8.282857e-05"
       y1="30.6"
       x2="93.599915"
       y2="30.6" />
  </defs>
  <sodipodi:namedview
     id="namedview6"
     pagecolor="#ffffff"
     bordercolor="#000000"
     borderopacity="0.25"
     inkscape:showpageshadow="2"
     inkscape:pageopacity="0.0"
     inkscape:pagecheckerboard="0"
     inkscape:deskcolor="#d1d1d1"
     inkscape:zoom="3.0449454"
     inkscape:cx="108.37633"
     inkscape:cy="88.17892"
     inkscape:window-width="1444"
     inkscape:window-height="1243"
     inkscape:window-x="0"
     inkscape:window-y="0"
     inkscape:window-maximized="0"
     inkscape:current-layer="g6" />
  <rect
     width="207.60944"
     height="206.86003"
     fill="none"
     class="background"
     id="rect1"
     ry="0"
     x="0"
     y="0"
     style="display:inline" />
  <g
     fill="#ffffff"
     class="icon-text-wrapper icon-svg-group iconsvg"
     id="g6"
     transform="matrix(1,0,0,0.9999966,-66.632721,-21.47514)">
    <g
       transform="translate(140,81.86)"
       class="iconsvg-imagesvg"
       id="g3">
      <path
         class="image-rect"
         fill="none"
         d="M 0,0 H 60 V 38.304 H 0 Z"
         id="path1"
         style="fill:none;fill-opacity:1" />
      <svg
         width="60"
         height="38.304001"
         class="image-svg-svg primary"
         style="display:inline;overflow:visible"
         version="1.1"
         id="svg3">
        <svg
           viewBox="0 0 93.6 61.2"
           version="1.1"
           id="svg2"
           style="display:inline;stroke:url(#linearGradient7)"
           width="100%"
           height="100%">
          <path
             d="M 59.1,30.6 30.6,2 2,30.6 30.6,59.2 Z m 32.5,0 L 63,2 44.95496,20.108356 34.5,30.6 63,59.1 Z"
             fill="none"
             stroke="#333"
             stroke-width="4"
             stroke-linejoin="round"
             stroke-miterlimit="10"
             id="path2"
             style="stroke:url(#linearGradient8);stroke-opacity:0.771256"
             sodipodi:nodetypes="ccccccccccc" />
        </svg>
      </svg>
    </g>
    <g
       id="g5"
       style="display:inline">
      <g
         data-gra="path-name"
         class="tp-name iconsvg-namesvg"
         id="g4">
        <path
           d="m 80.59,148.484 h 8.99 v -4.31 h -1.85 v -4.4 h 7.86 v 4.4 H 93.7 v 4.31 h 9.02 v -4.31 h -1.85 v -12.45 h 1.85 v -4.31 H 93.7 v 4.31 h 1.89 v 4.44 h -7.86 v -4.44 h 1.85 v -4.31 h -8.99 v 4.31 h 1.85 v 12.45 h -1.85 z m 32.73,-21.32 c -3.87,0 -8.8,1.26 -8.8,6.01 0,6.88 11.06,6.22 11.06,9.34 0,1.88 -1.76,2.54 -4.12,2.54 -0.72,0 -1.41,-0.06 -2.07,-0.19 l -0.28,-3.49 h -4.5 v 6.36 c 2.26,0.5 5.22,0.97 7.17,0.97 6.38,0 9.18,-2.36 9.18,-6.23 0,-7.23 -11.07,-6.31 -11.07,-9.87 0,-1.51 1.54,-1.95 3.43,-1.95 0.85,0 1.67,0.07 2.48,0.19 l 0.32,3.59 h 4.24 v -6.29 c -1.76,-0.51 -4.62,-0.98 -7.04,-0.98 z m 9.4,17.01 v 4.31 h 8.77 v -4.31 h -1.63 v -11.79 l 4.4,13.27 h 4.15 l 4.4,-13.27 v 11.79 h -1.63 v 4.31 h 8.77 v -4.31 h -1.86 v -12.45 h 1.86 v -4.31 h -9.72 l -3.9,11.61 -3.89,-11.61 h -9.72 v 4.31 h 1.85 v 12.45 z"
           id="path3"
           style="display:inline;fill:#15141a;fill-opacity:1;stroke:none;stroke-opacity:0.772549" />
        <path
           d="m 152.95,129.934 h 2.39 v 16.03 h -2.39 v 2.52 h 7.79 v -2.52 h -2.39 v -16.03 h 2.39 v -2.52 h -7.79 z m 9.93,2.67 v 2.14 h 2.39 v 11.57 h -2.39 v 2.17 h 7.67 v -2.17 h -2.45 v -8.02 c 0.66,-1.82 1.92,-3.61 3.96,-3.61 2.49,0 3.81,1.7 3.81,5.09 v 8.71 h 5.25 v -2.17 h -2.42 v -7.2 c 0,-4.4 -2.33,-6.76 -6.01,-6.76 -2.04,0 -3.49,0.91 -4.59,2.17 v -1.92 z m 19.78,16.67 c 0,3.42 3.61,4.71 7.8,4.71 4.24,0 7.76,-1.29 7.76,-4.71 0,-3.18 -3.39,-4.25 -7.8,-4.25 -0.97,0 -1.88,0.06 -2.73,0.16 -0.22,-0.63 -0.25,-1.32 0.09,-2.04 0.85,0.25 1.8,0.37 2.83,0.37 3.93,0 6.39,-1.95 6.39,-5.37 0,-1.48 -0.38,-2.65 -1.14,-3.46 l 3.68,0.06 v -2.2 l -8.96,-0.03 c -4.05,0 -6.7,1.79 -6.7,5.63 0,1.76 0.63,3.05 1.67,3.89 -0.63,1.01 -0.72,2.52 -0.31,3.75 -1.61,0.62 -2.58,1.69 -2.58,3.49 z m 7.89,-7.9 c -2.26,0 -3.96,-1.06 -3.96,-3.3 0,-2.26 1.35,-3.46 3.96,-3.46 2.74,0 3.74,1.36 3.74,3.46 0,1.86 -1.23,3.3 -3.74,3.3 z m -0.09,10.38 c -2.68,0 -4.82,-0.5 -4.82,-2.36 0,-1.76 2.14,-2.23 4.82,-2.23 2.98,0 4.74,0.69 4.74,2.23 0,1.86 -2.04,2.36 -4.74,2.36 z m 18.11,-3.27 v -2.17 h -2.46 v -3.9 c 0.47,-4.75 2.52,-7.32 6.17,-7.32 0.34,0 0.59,0.03 0.94,0.06 v -2.74 c -0.28,-0.03 -0.57,-0.03 -0.85,-0.03 -2.92,0 -4.97,1.51 -6.26,3.81 v -3.62 h -5.22 v 2.17 h 2.39 v 11.57 h -2.39 v 2.17 z m 5.65,-8.02 c 0,5.1 3.27,8.18 7.83,8.18 3.12,0 5.07,-1.1 6.61,-2.71 l -0.73,-2.29 c -1.25,1.35 -2.86,2.54 -5.34,2.54 -2.86,0 -4.78,-1.66 -5.32,-4.3 h 12.08 c 0,-0.35 0.06,-1.45 0.06,-1.76 0,-4.37 -2.45,-7.74 -7.42,-7.74 -4.4,0 -7.77,3.05 -7.77,8.08 z m 2.93,-0.78 c 0.28,-2.99 2.2,-4.97 4.94,-4.97 3.3,0 4.9,2.45 4.9,4.97 z m 21.1,-7.3 c -4.25,0 -6.42,1.64 -6.42,4.4 0,5.41 9.62,4.37 9.62,7.42 0,1.67 -1.19,2.11 -3.46,2.11 -1.25,0 -2.39,-0.13 -3.61,-0.47 l -0.25,-2.77 h -2.2 v 4.47 c 1.6,0.5 3.83,1.1 6.13,1.1 4.49,0 6.29,-1.61 6.29,-4.4 0,-5.29 -9.66,-4.09 -9.66,-7.61 0,-1.64 1.48,-1.98 3.74,-1.98 1.04,0 2.02,0.12 2.9,0.37 l 0.25,2.68 h 2.07 v -4.34 c -1.35,-0.47 -3.36,-0.98 -5.4,-0.98 z m 15.06,0 c -4.25,0 -6.42,1.64 -6.42,4.4 0,5.41 9.62,4.37 9.62,7.42 0,1.67 -1.19,2.11 -3.46,2.11 -1.25,0 -2.39,-0.13 -3.61,-0.47 l -0.25,-2.77 h -2.2 v 4.47 c 1.6,0.5 3.83,1.1 6.13,1.1 4.49,0 6.29,-1.61 6.29,-4.4 0,-5.29 -9.66,-4.09 -9.66,-7.61 0,-1.64 1.48,-1.98 3.74,-1.98 1.04,0 2.02,0.12 2.9,0.37 l 0.25,2.68 h 2.07 v -4.34 c -1.35,-0.47 -3.36,-0.98 -5.4,-0.98 z"
           data-gra="path-name-1"
           id="path4"
           style="fill:#15141a;fill-opacity:1;stroke:none;stroke-opacity:0.772549" />
      </g>
      <path
         d="m 136.246,164.06 c 0,0.64 0.09,1.22 0.26,1.73 0.17,0.5 0.41,0.93 0.72,1.28 0.31,0.35 0.67,0.61 1.09,0.8 0.42,0.18 0.88,0.27 1.38,0.27 0.5,0 0.95,-0.1 1.34,-0.3 0.39,-0.2 0.75,-0.48 1.06,-0.84 l -0.57,-0.61 c -0.25,0.28 -0.52,0.5 -0.81,0.65 -0.28,0.15 -0.61,0.23 -1,0.23 -0.37,0 -0.71,-0.08 -1.01,-0.23 -0.3,-0.15 -0.56,-0.37 -0.76,-0.65 -0.21,-0.28 -0.37,-0.62 -0.49,-1.01 -0.12,-0.4 -0.17,-0.84 -0.17,-1.34 0,-0.49 0.06,-0.93 0.18,-1.32 0.12,-0.39 0.28,-0.73 0.5,-1 0.22,-0.28 0.48,-0.49 0.78,-0.64 0.3,-0.15 0.64,-0.22 1.02,-0.22 0.34,0 0.63,0.07 0.88,0.2 0.25,0.13 0.48,0.31 0.69,0.53 l 0.57,-0.63 c -0.24,-0.26 -0.53,-0.49 -0.89,-0.68 -0.36,-0.2 -0.78,-0.3 -1.26,-0.3 -0.51,0 -0.97,0.1 -1.4,0.29 -0.43,0.18 -0.8,0.45 -1.11,0.81 -0.31,0.35 -0.56,0.78 -0.73,1.28 -0.18,0.5 -0.27,1.07 -0.27,1.7 z m 9.87,4.08 c 0.49,0 0.95,-0.09 1.36,-0.28 0.41,-0.2 0.77,-0.47 1.07,-0.83 0.3,-0.35 0.53,-0.78 0.69,-1.29 0.17,-0.51 0.25,-1.08 0.25,-1.71 0,-0.63 -0.08,-1.19 -0.25,-1.69 -0.16,-0.5 -0.39,-0.92 -0.69,-1.27 -0.3,-0.35 -0.66,-0.62 -1.07,-0.8 a 3.22,3.22 0 0 0 -1.36,-0.29 c -0.5,0 -0.95,0.1 -1.36,0.28 a 2.9,2.9 0 0 0 -1.07,0.8 c -0.29,0.35 -0.52,0.77 -0.69,1.27 -0.16,0.5 -0.24,1.07 -0.24,1.7 0,0.63 0.08,1.2 0.24,1.71 0.17,0.51 0.4,0.94 0.69,1.29 0.3,0.36 0.65,0.63 1.07,0.83 0.41,0.19 0.86,0.28 1.36,0.28 z m 0,-0.87 c -0.35,0 -0.67,-0.08 -0.96,-0.23 -0.28,-0.15 -0.52,-0.37 -0.73,-0.65 -0.2,-0.29 -0.36,-0.63 -0.47,-1.02 -0.11,-0.4 -0.17,-0.85 -0.17,-1.34 0,-0.49 0.06,-0.93 0.17,-1.32 0.11,-0.39 0.27,-0.73 0.47,-1 0.21,-0.27 0.45,-0.48 0.73,-0.63 0.29,-0.15 0.61,-0.22 0.96,-0.22 0.35,0 0.67,0.07 0.95,0.22 0.29,0.15 0.53,0.36 0.73,0.63 0.21,0.27 0.37,0.61 0.48,1 0.11,0.39 0.17,0.83 0.17,1.32 0,0.49 -0.06,0.94 -0.17,1.34 -0.11,0.39 -0.27,0.73 -0.48,1.02 -0.2,0.28 -0.44,0.5 -0.73,0.65 -0.28,0.15 -0.6,0.23 -0.95,0.23 z m 5.06,-7.14 V 168 h 0.95 v -4.12 c 0,-0.41 -0.01,-0.83 -0.04,-1.24 l -0.09,-1.22 h 0.05 l 0.85,1.62 2.85,4.96 h 1.04 v -7.87 h -0.95 v 4.07 c 0,0.41 0.01,0.83 0.04,1.26 0.03,0.43 0.05,0.84 0.08,1.24 h -0.05 l -0.85,-1.63 -2.85,-4.94 z m 9.4,0.84 V 168 h 1.01 v -7.03 h 2.37 v -0.84 h -5.76 v 0.84 z m 5.79,2.89 v -2.93 h 1.32 c 0.62,0 1.09,0.11 1.42,0.31 0.33,0.21 0.49,0.58 0.49,1.1 0,0.51 -0.16,0.89 -0.49,1.14 -0.33,0.25 -0.8,0.38 -1.42,0.38 z m 3.33,4.14 h 1.13 l -2,-3.43 c 0.54,-0.14 0.97,-0.39 1.29,-0.76 0.32,-0.37 0.48,-0.86 0.48,-1.47 0,-0.41 -0.07,-0.76 -0.21,-1.04 -0.13,-0.28 -0.32,-0.5 -0.57,-0.68 -0.24,-0.18 -0.53,-0.3 -0.87,-0.38 -0.34,-0.07 -0.71,-0.11 -1.11,-0.11 h -2.46 V 168 h 0.99 v -3.32 h 1.43 z m 5.55,0.14 c 0.5,0 0.95,-0.09 1.37,-0.28 0.41,-0.2 0.76,-0.47 1.06,-0.83 0.3,-0.35 0.54,-0.78 0.7,-1.29 0.16,-0.51 0.25,-1.08 0.25,-1.71 0,-0.63 -0.09,-1.19 -0.25,-1.69 -0.16,-0.5 -0.4,-0.92 -0.7,-1.27 -0.3,-0.35 -0.65,-0.62 -1.06,-0.8 -0.42,-0.19 -0.87,-0.29 -1.37,-0.29 -0.49,0 -0.95,0.1 -1.36,0.28 -0.41,0.18 -0.76,0.45 -1.06,0.8 -0.3,0.35 -0.53,0.77 -0.69,1.27 -0.16,0.5 -0.25,1.07 -0.25,1.7 0,0.63 0.09,1.2 0.25,1.71 0.16,0.51 0.39,0.94 0.69,1.29 0.3,0.36 0.65,0.63 1.06,0.83 0.41,0.19 0.87,0.28 1.36,0.28 z m 0,-0.87 c -0.35,0 -0.67,-0.08 -0.95,-0.23 -0.28,-0.15 -0.53,-0.37 -0.73,-0.65 -0.21,-0.29 -0.36,-0.63 -0.48,-1.02 -0.11,-0.4 -0.16,-0.85 -0.16,-1.34 0,-0.49 0.05,-0.93 0.16,-1.32 0.12,-0.39 0.27,-0.73 0.48,-1 0.2,-0.27 0.45,-0.48 0.73,-0.63 0.28,-0.15 0.6,-0.22 0.95,-0.22 0.36,0 0.67,0.07 0.96,0.22 0.28,0.15 0.53,0.36 0.73,0.63 0.2,0.27 0.36,0.61 0.47,1 0.12,0.39 0.17,0.83 0.17,1.32 0,0.49 -0.05,0.94 -0.17,1.34 -0.11,0.39 -0.27,0.73 -0.47,1.02 -0.2,0.28 -0.45,0.5 -0.73,0.65 -0.29,0.15 -0.6,0.23 -0.96,0.23 z m 5.07,-7.14 V 168 h 4.44 v -0.85 h -3.45 v -7.02 z m 5.83,0 V 168 h 4.44 v -0.85 h -3.44 v -7.02 z m 5.83,0 V 168 h 4.66 v -0.85 h -3.66 v -2.86 h 2.99 v -0.85 h -2.99 v -2.47 h 3.54 v -0.84 z m 7.32,3.73 v -2.93 h 1.32 c 0.62,0 1.09,0.11 1.42,0.31 0.33,0.21 0.49,0.58 0.49,1.1 0,0.51 -0.16,0.89 -0.49,1.14 -0.33,0.25 -0.8,0.38 -1.42,0.38 z m 3.33,4.14 h 1.12 l -1.99,-3.43 c 0.54,-0.14 0.97,-0.39 1.29,-0.76 0.32,-0.37 0.48,-0.86 0.48,-1.47 0,-0.41 -0.07,-0.76 -0.21,-1.04 -0.13,-0.28 -0.32,-0.5 -0.57,-0.68 -0.24,-0.18 -0.53,-0.3 -0.87,-0.38 -0.34,-0.07 -0.71,-0.11 -1.11,-0.11 h -2.46 V 168 h 0.99 v -3.32 h 1.43 z"
         data-gra="path-slogan"
         class="tp-slogan iconsvg-slogansvg"
         id="path5"
         style="fill:#15141a;fill-opacity:1;stroke:none;stroke-opacity:0.772549" />
    </g>
  </g>
</svg>
