<?xml version="1.0" encoding="UTF-8" standalone="no"?>
<svg
   version="1.0"
   viewBox="0 0 340 250"
   color-interpolation-filters="sRGB"
   style="margin:auto"
   id="svg6"
   sodipodi:docname="iconly_svg_optimized-optimized(1).svg"
   inkscape:version="1.3.2 (091e20ef0f, 2023-11-25)"
   xmlns:inkscape="http://www.inkscape.org/namespaces/inkscape"
   xmlns:sodipodi="http://sodipodi.sourceforge.net/DTD/sodipodi-0.dtd"
   xmlns:xlink="http://www.w3.org/1999/xlink"
   xmlns="http://www.w3.org/2000/svg"
   xmlns:svg="http://www.w3.org/2000/svg">
  <defs
     id="defs6">
    <linearGradient
       id="linearGradient6"
       inkscape:collect="always">
      <stop
         style="stop-color:#1e40af;stop-opacity:0.77254903;"
         offset="0"
         id="stop6" />
      <stop
         style="stop-color:#3b82f6;stop-opacity:1;"
         offset="1"
         id="stop7" />
    </linearGradient>
    <linearGradient
       inkscape:collect="always"
       xlink:href="#linearGradient6"
       id="linearGradient7"
       x1="8.2828573e-05"
       y1="30.6"
       x2="93.599917"
       y2="30.6"
       gradientUnits="userSpaceOnUse" />
  </defs>
  <sodipodi:namedview
     id="namedview6"
     pagecolor="#ffffff"
     bordercolor="#000000"
     borderopacity="0.25"
     inkscape:showpageshadow="2"
     inkscape:pageopacity="0.0"
     inkscape:pagecheckerboard="0"
     inkscape:deskcolor="#d1d1d1"
     inkscape:zoom="2.2244056"
     inkscape:cx="139.81263"
     inkscape:cy="129.24801"
     inkscape:window-width="1444"
     inkscape:window-height="1243"
     inkscape:window-x="0"
     inkscape:window-y="0"
     inkscape:window-maximized="0"
     inkscape:current-layer="svg6" />
  <rect
     style="display:none;opacity:1;fill:#000000;stroke:#2563eb;stroke-width:1.826;stroke-linecap:round;stroke-linejoin:round;stroke-opacity:0.771256"
     id="rect6"
     width="348.36957"
     height="256.65402"
     x="-7.3455524"
     y="-6.2324018" />
  <rect
     width="100%"
     height="100%"
     fill="none"
     class="background"
     id="rect1" />
  <g
     fill="#fff"
     class="icon-text-wrapper icon-svg-group iconsvg"
     id="g6">
    <g
       transform="translate(140 81.86)"
       class="iconsvg-imagesvg"
       id="g3">
      <path
         class="image-rect"
         fill="none"
         d="M0 0h60v38.304H0z"
         id="path1"
         style="fill:none;fill-opacity:1" />
      <svg
         width="60"
         height="38.304"
         class="image-svg-svg primary"
         style="overflow:visible"
         version="1.1"
         id="svg3">
        <svg
           viewBox="0 0 93.6 61.2"
           version="1.1"
           id="svg2"
           style="stroke:url(#linearGradient7);stroke-opacity:0.77125603">
          <path
             d="M 59.1,30.6 30.6,2 2,30.6 30.6,59.2 Z m 32.5,0 L 63,2 44.95496,20.108356 34.5,30.6 63,59.1 Z"
             fill="none"
             stroke="#333"
             stroke-width="4"
             stroke-linejoin="round"
             stroke-miterlimit="10"
             id="path2"
             style="stroke:url(#linearGradient7);stroke-opacity:0.771256"
             sodipodi:nodetypes="ccccccccccc" />
        </svg>
      </svg>
    </g>
    <g
       id="g5">
      <g
         data-gra="path-name"
         class="tp-name iconsvg-namesvg"
         id="g4">
        <path
           d="M80.59 148.484h8.99v-4.31h-1.85v-4.4h7.86v4.4H93.7v4.31h9.02v-4.31h-1.85v-12.45h1.85v-4.31H93.7v4.31h1.89v4.44h-7.86v-4.44h1.85v-4.31h-8.99v4.31h1.85v12.45h-1.85Zm32.73-21.32c-3.87 0-8.8 1.26-8.8 6.01 0 6.88 11.06 6.22 11.06 9.34 0 1.88-1.76 2.54-4.12 2.54-.72 0-1.41-.06-2.07-.19l-.28-3.49h-4.5v6.36c2.26.5 5.22.97 7.17.97 6.38 0 9.18-2.36 9.18-6.23 0-7.23-11.07-6.31-11.07-9.87 0-1.51 1.54-1.95 3.43-1.95.85 0 1.67.07 2.48.19l.32 3.59h4.24v-6.29c-1.76-.51-4.62-.98-7.04-.98Zm9.4 17.01v4.31h8.77v-4.31h-1.63v-11.79l4.4 13.27h4.15l4.4-13.27v11.79h-1.63v4.31h8.77v-4.31h-1.86v-12.45h1.86v-4.31h-9.72l-3.9 11.61-3.89-11.61h-9.72v4.31h1.85v12.45Z"
           id="path3" />
        <path
           d="M152.95 129.934h2.39v16.03h-2.39v2.52h7.79v-2.52h-2.39v-16.03h2.39v-2.52h-7.79Zm9.93 2.67v2.14h2.39v11.57h-2.39v2.17h7.67v-2.17h-2.45v-8.02c.66-1.82 1.92-3.61 3.96-3.61 2.49 0 3.81 1.7 3.81 5.09v8.71h5.25v-2.17h-2.42v-7.2c0-4.4-2.33-6.76-6.01-6.76-2.04 0-3.49.91-4.59 2.17v-1.92Zm19.78 16.67c0 3.42 3.61 4.71 7.8 4.71 4.24 0 7.76-1.29 7.76-4.71 0-3.18-3.39-4.25-7.8-4.25-.97 0-1.88.06-2.73.16-.22-.63-.25-1.32.09-2.04.85.25 1.8.37 2.83.37 3.93 0 6.39-1.95 6.39-5.37 0-1.48-.38-2.65-1.14-3.46l3.68.06v-2.2l-8.96-.03c-4.05 0-6.7 1.79-6.7 5.63 0 1.76.63 3.05 1.67 3.89-.63 1.01-.72 2.52-.31 3.75-1.61.62-2.58 1.69-2.58 3.49Zm7.89-7.9c-2.26 0-3.96-1.06-3.96-3.3 0-2.26 1.35-3.46 3.96-3.46 2.74 0 3.74 1.36 3.74 3.46 0 1.86-1.23 3.3-3.74 3.3Zm-.09 10.38c-2.68 0-4.82-.5-4.82-2.36 0-1.76 2.14-2.23 4.82-2.23 2.98 0 4.74.69 4.74 2.23 0 1.86-2.04 2.36-4.74 2.36Zm18.11-3.27v-2.17h-2.46v-3.9c.47-4.75 2.52-7.32 6.17-7.32.34 0 .59.03.94.06v-2.74c-.28-.03-.57-.03-.85-.03-2.92 0-4.97 1.51-6.26 3.81v-3.62h-5.22v2.17h2.39v11.57h-2.39v2.17Zm5.65-8.02c0 5.1 3.27 8.18 7.83 8.18 3.12 0 5.07-1.1 6.61-2.71l-.73-2.29c-1.25 1.35-2.86 2.54-5.34 2.54-2.86 0-4.78-1.66-5.32-4.3h12.08c0-.35.06-1.45.06-1.76 0-4.37-2.45-7.74-7.42-7.74-4.4 0-7.77 3.05-7.77 8.08Zm2.93-.78c.28-2.99 2.2-4.97 4.94-4.97 3.3 0 4.9 2.45 4.9 4.97Zm21.1-7.3c-4.25 0-6.42 1.64-6.42 4.4 0 5.41 9.62 4.37 9.62 7.42 0 1.67-1.19 2.11-3.46 2.11-1.25 0-2.39-.13-3.61-.47l-.25-2.77h-2.2v4.47c1.6.5 3.83 1.1 6.13 1.1 4.49 0 6.29-1.61 6.29-4.4 0-5.29-9.66-4.09-9.66-7.61 0-1.64 1.48-1.98 3.74-1.98 1.04 0 2.02.12 2.9.37l.25 2.68h2.07v-4.34c-1.35-.47-3.36-.98-5.4-.98Zm15.06 0c-4.25 0-6.42 1.64-6.42 4.4 0 5.41 9.62 4.37 9.62 7.42 0 1.67-1.19 2.11-3.46 2.11-1.25 0-2.39-.13-3.61-.47l-.25-2.77h-2.2v4.47c1.6.5 3.83 1.1 6.13 1.1 4.49 0 6.29-1.61 6.29-4.4 0-5.29-9.66-4.09-9.66-7.61 0-1.64 1.48-1.98 3.74-1.98 1.04 0 2.02.12 2.9.37l.25 2.68h2.07v-4.34c-1.35-.47-3.36-.98-5.4-.98Z"
           data-gra="path-name-1"
           id="path4" />
      </g>
      <path
         d="M136.246 164.06c0 .64.09 1.22.26 1.73.17.5.41.93.72 1.28s.67.61 1.09.8c.42.18.88.27 1.38.27.5 0 .95-.1 1.34-.3.39-.2.75-.48 1.06-.84l-.57-.61c-.25.28-.52.5-.81.65-.28.15-.61.23-1 .23-.37 0-.71-.08-1.01-.23-.3-.15-.56-.37-.76-.65-.21-.28-.37-.62-.49-1.01-.12-.4-.17-.84-.17-1.34 0-.49.06-.93.18-1.32s.28-.73.5-1c.22-.28.48-.49.78-.64.3-.15.64-.22 1.02-.22.34 0 .63.07.88.2s.48.31.69.53l.57-.63c-.24-.26-.53-.49-.89-.68-.36-.2-.78-.3-1.26-.3-.51 0-.97.1-1.4.29-.43.18-.8.45-1.11.81-.31.35-.56.78-.73 1.28-.18.5-.27 1.07-.27 1.7Zm9.87 4.08c.49 0 .95-.09 1.36-.28.41-.2.77-.47 1.07-.83.3-.35.53-.78.69-1.29.17-.51.25-1.08.25-1.71 0-.63-.08-1.19-.25-1.69-.16-.5-.39-.92-.69-1.27-.3-.35-.66-.62-1.07-.8a3.22 3.22 0 0 0-1.36-.29c-.5 0-.95.1-1.36.28a2.9 2.9 0 0 0-1.07.8c-.29.35-.52.77-.69 1.27-.16.5-.24 1.07-.24 1.7 0 .63.08 1.2.24 1.71.17.51.4.94.69 1.29.3.36.65.63 1.07.83.41.19.86.28 1.36.28Zm0-.87c-.35 0-.67-.08-.96-.23-.28-.15-.52-.37-.73-.65-.2-.29-.36-.63-.47-1.02-.11-.4-.17-.85-.17-1.34 0-.49.06-.93.17-1.32.11-.39.27-.73.47-1 .21-.27.45-.48.73-.63.29-.15.61-.22.96-.22s.67.07.95.22c.29.15.53.36.73.63.21.27.37.61.48 1 .11.39.17.83.17 1.32 0 .49-.06.94-.17 1.34-.11.39-.27.73-.48 1.02-.2.28-.44.5-.73.65-.28.15-.6.23-.95.23Zm5.06-7.14V168h.95v-4.12c0-.41-.01-.83-.04-1.24l-.09-1.22h.05l.85 1.62 2.85 4.96h1.04v-7.87h-.95v4.07c0 .41.01.83.04 1.26.03.43.05.84.08 1.24h-.05l-.85-1.63-2.85-4.94Zm9.4.84V168h1.01v-7.03h2.37v-.84h-5.76v.84Zm5.79 2.89v-2.93h1.32c.62 0 1.09.11 1.42.31.33.21.49.58.49 1.1 0 .51-.16.89-.49 1.14-.33.25-.8.38-1.42.38Zm3.33 4.14h1.13l-2-3.43c.54-.14.97-.39 1.29-.76.32-.37.48-.86.48-1.47 0-.41-.07-.76-.21-1.04-.13-.28-.32-.5-.57-.68-.24-.18-.53-.3-.87-.38-.34-.07-.71-.11-1.11-.11h-2.46V168h.99v-3.32h1.43Zm5.55.14c.5 0 .95-.09 1.37-.28.41-.2.76-.47 1.06-.83.3-.35.54-.78.7-1.29.16-.51.25-1.08.25-1.71 0-.63-.09-1.19-.25-1.69s-.4-.92-.7-1.27c-.3-.35-.65-.62-1.06-.8-.42-.19-.87-.29-1.37-.29-.49 0-.95.1-1.36.28-.41.18-.76.45-1.06.8-.3.35-.53.77-.69 1.27-.16.5-.25 1.07-.25 1.7 0 .63.09 1.2.25 1.71s.39.94.69 1.29c.3.36.65.63 1.06.83.41.19.87.28 1.36.28Zm0-.87c-.35 0-.67-.08-.95-.23-.28-.15-.53-.37-.73-.65-.21-.29-.36-.63-.48-1.02-.11-.4-.16-.85-.16-1.34 0-.49.05-.93.16-1.32.12-.39.27-.73.48-1 .2-.27.45-.48.73-.63.28-.15.6-.22.95-.22.36 0 .67.07.96.22.28.15.53.36.73.63.2.27.36.61.47 1 .12.39.17.83.17 1.32 0 .49-.05.94-.17 1.34-.11.39-.27.73-.47 1.02-.2.28-.45.5-.73.65-.29.15-.6.23-.96.23Zm5.07-7.14V168h4.44v-.85h-3.45v-7.02Zm5.83 0V168h4.44v-.85h-3.44v-7.02Zm5.83 0V168h4.66v-.85h-3.66v-2.86h2.99v-.85h-2.99v-2.47h3.54v-.84Zm7.32 3.73v-2.93h1.32c.62 0 1.09.11 1.42.31.33.21.49.58.49 1.1 0 .51-.16.89-.49 1.14-.33.25-.8.38-1.42.38Zm3.33 4.14h1.12l-1.99-3.43c.54-.14.97-.39 1.29-.76.32-.37.48-.86.48-1.47 0-.41-.07-.76-.21-1.04-.13-.28-.32-.5-.57-.68-.24-.18-.53-.3-.87-.38-.34-.07-.71-.11-1.11-.11h-2.46V168h.99v-3.32h1.43Z"
         data-gra="path-slogan"
         class="tp-slogan iconsvg-slogansvg"
         id="path5" />
    </g>
  </g>
</svg>
